G04 #@! TF.GenerationSoftware,KiCad,Pcbnew,5.1.4*
G04 #@! TF.CreationDate,2019-11-04T19:43:57+01:00*
G04 #@! TF.ProjectId,arduino-farm,61726475-696e-46f2-9d66-61726d2e6b69,rev?*
G04 #@! TF.SameCoordinates,Original*
G04 #@! TF.FileFunction,Legend,Bot*
G04 #@! TF.FilePolarity,Positive*
%FSLAX46Y46*%
G04 Gerber Fmt 4.6, Leading zero omitted, Abs format (unit mm)*
G04 Created by KiCad (PCBNEW 5.1.4) date 2019-11-04 19:43:57*
%MOMM*%
%LPD*%
G04 APERTURE LIST*
%ADD10C,0.300000*%
G04 APERTURE END LIST*
D10*
X132392857Y-60000000D02*
X131678571Y-60000000D01*
X132535714Y-60428571D02*
X132035714Y-58928571D01*
X131535714Y-60428571D01*
X131035714Y-60428571D02*
X131035714Y-59428571D01*
X131035714Y-59714285D02*
X130964285Y-59571428D01*
X130892857Y-59500000D01*
X130750000Y-59428571D01*
X130607142Y-59428571D01*
X129464285Y-60428571D02*
X129464285Y-58928571D01*
X129464285Y-60357142D02*
X129607142Y-60428571D01*
X129892857Y-60428571D01*
X130035714Y-60357142D01*
X130107142Y-60285714D01*
X130178571Y-60142857D01*
X130178571Y-59714285D01*
X130107142Y-59571428D01*
X130035714Y-59500000D01*
X129892857Y-59428571D01*
X129607142Y-59428571D01*
X129464285Y-59500000D01*
X128107142Y-59428571D02*
X128107142Y-60428571D01*
X128750000Y-59428571D02*
X128750000Y-60214285D01*
X128678571Y-60357142D01*
X128535714Y-60428571D01*
X128321428Y-60428571D01*
X128178571Y-60357142D01*
X128107142Y-60285714D01*
X127392857Y-60428571D02*
X127392857Y-59428571D01*
X127392857Y-58928571D02*
X127464285Y-59000000D01*
X127392857Y-59071428D01*
X127321428Y-59000000D01*
X127392857Y-58928571D01*
X127392857Y-59071428D01*
X126678571Y-59428571D02*
X126678571Y-60428571D01*
X126678571Y-59571428D02*
X126607142Y-59500000D01*
X126464285Y-59428571D01*
X126250000Y-59428571D01*
X126107142Y-59500000D01*
X126035714Y-59642857D01*
X126035714Y-60428571D01*
X125107142Y-60428571D02*
X125250000Y-60357142D01*
X125321428Y-60285714D01*
X125392857Y-60142857D01*
X125392857Y-59714285D01*
X125321428Y-59571428D01*
X125250000Y-59500000D01*
X125107142Y-59428571D01*
X124892857Y-59428571D01*
X124750000Y-59500000D01*
X124678571Y-59571428D01*
X124607142Y-59714285D01*
X124607142Y-60142857D01*
X124678571Y-60285714D01*
X124750000Y-60357142D01*
X124892857Y-60428571D01*
X125107142Y-60428571D01*
X122321428Y-59642857D02*
X122821428Y-59642857D01*
X122821428Y-60428571D02*
X122821428Y-58928571D01*
X122107142Y-58928571D01*
X120892857Y-60428571D02*
X120892857Y-59642857D01*
X120964285Y-59500000D01*
X121107142Y-59428571D01*
X121392857Y-59428571D01*
X121535714Y-59500000D01*
X120892857Y-60357142D02*
X121035714Y-60428571D01*
X121392857Y-60428571D01*
X121535714Y-60357142D01*
X121607142Y-60214285D01*
X121607142Y-60071428D01*
X121535714Y-59928571D01*
X121392857Y-59857142D01*
X121035714Y-59857142D01*
X120892857Y-59785714D01*
X120178571Y-60428571D02*
X120178571Y-59428571D01*
X120178571Y-59714285D02*
X120107142Y-59571428D01*
X120035714Y-59500000D01*
X119892857Y-59428571D01*
X119750000Y-59428571D01*
X119250000Y-60428571D02*
X119250000Y-59428571D01*
X119250000Y-59571428D02*
X119178571Y-59500000D01*
X119035714Y-59428571D01*
X118821428Y-59428571D01*
X118678571Y-59500000D01*
X118607142Y-59642857D01*
X118607142Y-60428571D01*
X118607142Y-59642857D02*
X118535714Y-59500000D01*
X118392857Y-59428571D01*
X118178571Y-59428571D01*
X118035714Y-59500000D01*
X117964285Y-59642857D01*
X117964285Y-60428571D01*
X115250000Y-60428571D02*
X115750000Y-59714285D01*
X116107142Y-60428571D02*
X116107142Y-58928571D01*
X115535714Y-58928571D01*
X115392857Y-59000000D01*
X115321428Y-59071428D01*
X115250000Y-59214285D01*
X115250000Y-59428571D01*
X115321428Y-59571428D01*
X115392857Y-59642857D01*
X115535714Y-59714285D01*
X116107142Y-59714285D01*
X114035714Y-60357142D02*
X114178571Y-60428571D01*
X114464285Y-60428571D01*
X114607142Y-60357142D01*
X114678571Y-60214285D01*
X114678571Y-59642857D01*
X114607142Y-59500000D01*
X114464285Y-59428571D01*
X114178571Y-59428571D01*
X114035714Y-59500000D01*
X113964285Y-59642857D01*
X113964285Y-59785714D01*
X114678571Y-59928571D01*
X113464285Y-59428571D02*
X113107142Y-60428571D01*
X112750000Y-59428571D01*
X110250000Y-60428571D02*
X111107142Y-60428571D01*
X110678571Y-60428571D02*
X110678571Y-58928571D01*
X110821428Y-59142857D01*
X110964285Y-59285714D01*
X111107142Y-59357142D01*
X109607142Y-60285714D02*
X109535714Y-60357142D01*
X109607142Y-60428571D01*
X109678571Y-60357142D01*
X109607142Y-60285714D01*
X109607142Y-60428571D01*
X108607142Y-58928571D02*
X108464285Y-58928571D01*
X108321428Y-59000000D01*
X108250000Y-59071428D01*
X108178571Y-59214285D01*
X108107142Y-59500000D01*
X108107142Y-59857142D01*
X108178571Y-60142857D01*
X108250000Y-60285714D01*
X108321428Y-60357142D01*
X108464285Y-60428571D01*
X108607142Y-60428571D01*
X108750000Y-60357142D01*
X108821428Y-60285714D01*
X108892857Y-60142857D01*
X108964285Y-59857142D01*
X108964285Y-59500000D01*
X108892857Y-59214285D01*
X108821428Y-59071428D01*
X108750000Y-59000000D01*
X108607142Y-58928571D01*
M02*
