M48
; DRILL file {KiCad 5.1.4} date Mon 04 Nov 2019 19:44:46 CET
; FORMAT={3:3/ absolute / metric / suppress leading zeros}
; #@! TF.CreationDate,2019-11-04T19:44:46+01:00
; #@! TF.GenerationSoftware,Kicad,Pcbnew,5.1.4
FMAT,2
METRIC,TZ
T1C0.800
T2C0.900
T3C1.000
T4C1.100
T5C1.300
T6C2.000
T7C2.400
T8C3.200
%
G90
G05
T1
X74000Y-72000
X74000Y-82160
X80000Y-72000
X80000Y-82160
X110000Y-72000
X110000Y-82160
X122000Y-72000
X122000Y-82160
X86000Y-72000
X86000Y-82160
X116000Y-72000
X116000Y-82160
X68000Y-72000
X68000Y-82160
X165000Y-80000
X165000Y-90160
X140000Y-65000
X140000Y-67540
X140000Y-70080
X140000Y-72620
X140000Y-75160
X140000Y-77700
X140000Y-80240
X140000Y-82780
X140000Y-85320
X140000Y-87860
X140000Y-90400
X140000Y-92940
X140000Y-95480
X140000Y-98020
X140000Y-100560
X155240Y-65000
X155240Y-67540
X155240Y-70080
X155240Y-72620
X155240Y-75160
X155240Y-77700
X155240Y-80240
X155240Y-82780
X155240Y-85320
X155240Y-87860
X155240Y-90400
X155240Y-92940
X155240Y-95480
X155240Y-98020
X155240Y-100560
X128000Y-72000
X128000Y-82160
X104000Y-72000
X104000Y-82160
X98000Y-72000
X98000Y-82160
X62000Y-72000
X62000Y-82160
X92000Y-72000
X92000Y-82160
X181120Y-68000
X191280Y-68000
T2
X178580Y-61000
X181120Y-61000
T3
X171950Y-98050
X171950Y-110050
T4
X110000Y-90000
X112540Y-90000
X115080Y-90000
X88540Y-98000
X88540Y-105620
X64540Y-98000
X64540Y-105620
X86000Y-90000
X88540Y-90000
X91080Y-90000
X74000Y-90000
X76540Y-90000
X79080Y-90000
X76540Y-98000
X76540Y-105620
X186200Y-76000
X188740Y-76000
X191280Y-76000
X165000Y-67540
X165000Y-70080
X165000Y-72620
X112550Y-98000
X112550Y-105620
X122000Y-90000
X124540Y-90000
X127080Y-90000
X98000Y-90000
X100540Y-90000
X103080Y-90000
X124540Y-98000
X124540Y-105620
X100540Y-98000
X100540Y-105620
X62000Y-90000
X64540Y-90000
X67080Y-90000
T5
X177000Y-120000
X177000Y-125080
X177000Y-130160
X177000Y-135240
X177000Y-140320
X177000Y-145400
X119500Y-120000
X119500Y-125080
X119500Y-130160
X119500Y-135240
X119500Y-140320
X119500Y-145400
X164000Y-120000
X164000Y-125080
X164000Y-130160
X164000Y-135240
X164000Y-140320
X164000Y-145400
X88000Y-120000
X88000Y-125080
X88000Y-130160
X88000Y-135240
X88000Y-140320
X88000Y-145400
X132500Y-120000
X132500Y-125080
X132500Y-130160
X132500Y-135240
X132500Y-140320
X132500Y-145400
X75000Y-120000
X75000Y-125080
X75000Y-130160
X75000Y-135240
X75000Y-140320
X75000Y-145400
X170000Y-104000
X184150Y-110050
X184200Y-98000
T6
X177000Y-85500
X186200Y-85500
T7
X181600Y-86700
T8
X60000Y-60000
X192000Y-151000
X60000Y-151000
X192000Y-60000
T0
M30
